<mxfile host="app.diagrams.net" modified="2024-06-14T21:28:14.570Z" agent="Mozilla/5.0 (Windows NT 10.0; Win64; x64; rv:127.0) Gecko/20100101 Firefox/127.0" etag="KjB9cud12ttmSAfmtPx0" version="24.5.4" type="github">
  <diagram name="Page-1" id="n1djBMxe8hHKIEd8i9Pb">
    <mxGraphModel dx="2764" dy="1000" grid="1" gridSize="10" guides="1" tooltips="1" connect="1" arrows="1" fold="1" page="1" pageScale="1" pageWidth="850" pageHeight="1100" math="0" shadow="0">
      <root>
        <mxCell id="0" />
        <mxCell id="1" parent="0" />
        <mxCell id="49KmKqLuegTFWFSld-SZ-6" value="ActivityLevel" style="rounded=1;whiteSpace=wrap;html=1;" vertex="1" parent="1">
          <mxGeometry x="1170" y="650" width="120" height="40" as="geometry" />
        </mxCell>
        <mxCell id="49KmKqLuegTFWFSld-SZ-7" value="Agent" style="rounded=0;whiteSpace=wrap;html=1;" vertex="1" parent="1">
          <mxGeometry x="1030" y="190" width="120" height="40" as="geometry" />
        </mxCell>
        <mxCell id="49KmKqLuegTFWFSld-SZ-8" value="Chart" style="rounded=0;whiteSpace=wrap;html=1;" vertex="1" parent="1">
          <mxGeometry x="1190" y="190" width="120" height="40" as="geometry" />
        </mxCell>
        <mxCell id="49KmKqLuegTFWFSld-SZ-9" value="ConnectedSystem" style="ellipse;whiteSpace=wrap;html=1;" vertex="1" parent="1">
          <mxGeometry x="1320" y="960" width="120" height="40" as="geometry" />
        </mxCell>
        <mxCell id="49KmKqLuegTFWFSld-SZ-11" value="Construction" style="rounded=0;whiteSpace=wrap;html=1;" vertex="1" parent="1">
          <mxGeometry x="1350" y="190" width="120" height="40" as="geometry" />
        </mxCell>
        <mxCell id="49KmKqLuegTFWFSld-SZ-18" style="edgeStyle=orthogonalEdgeStyle;rounded=0;orthogonalLoop=1;jettySize=auto;html=1;" edge="1" parent="1" source="49KmKqLuegTFWFSld-SZ-13" target="49KmKqLuegTFWFSld-SZ-11">
          <mxGeometry relative="1" as="geometry" />
        </mxCell>
        <mxCell id="49KmKqLuegTFWFSld-SZ-13" value="ConstructionMaterial" style="ellipse;whiteSpace=wrap;html=1;" vertex="1" parent="1">
          <mxGeometry x="1350" y="270" width="120" height="40" as="geometry" />
        </mxCell>
        <mxCell id="49KmKqLuegTFWFSld-SZ-14" value="Contract" style="rounded=0;whiteSpace=wrap;html=1;" vertex="1" parent="1">
          <mxGeometry x="830" y="270" width="120" height="40" as="geometry" />
        </mxCell>
        <mxCell id="49KmKqLuegTFWFSld-SZ-23" style="edgeStyle=orthogonalEdgeStyle;rounded=0;orthogonalLoop=1;jettySize=auto;html=1;" edge="1" parent="1" source="49KmKqLuegTFWFSld-SZ-15" target="49KmKqLuegTFWFSld-SZ-14">
          <mxGeometry relative="1" as="geometry" />
        </mxCell>
        <mxCell id="49KmKqLuegTFWFSld-SZ-15" value="ContractTerms" style="rounded=0;whiteSpace=wrap;html=1;" vertex="1" parent="1">
          <mxGeometry x="830" y="390" width="120" height="40" as="geometry" />
        </mxCell>
        <mxCell id="49KmKqLuegTFWFSld-SZ-22" style="edgeStyle=orthogonalEdgeStyle;rounded=0;orthogonalLoop=1;jettySize=auto;html=1;" edge="1" parent="1" source="49KmKqLuegTFWFSld-SZ-19" target="49KmKqLuegTFWFSld-SZ-15">
          <mxGeometry relative="1" as="geometry">
            <mxPoint x="840" y="500" as="sourcePoint" />
          </mxGeometry>
        </mxCell>
        <mxCell id="49KmKqLuegTFWFSld-SZ-19" value="ContractDeliver" style="ellipse;whiteSpace=wrap;html=1;" vertex="1" parent="1">
          <mxGeometry x="750" y="480" width="120" height="40" as="geometry" />
        </mxCell>
        <mxCell id="49KmKqLuegTFWFSld-SZ-21" style="edgeStyle=orthogonalEdgeStyle;rounded=0;orthogonalLoop=1;jettySize=auto;html=1;" edge="1" parent="1" source="49KmKqLuegTFWFSld-SZ-20" target="49KmKqLuegTFWFSld-SZ-15">
          <mxGeometry relative="1" as="geometry">
            <mxPoint x="970" y="500" as="sourcePoint" />
          </mxGeometry>
        </mxCell>
        <mxCell id="49KmKqLuegTFWFSld-SZ-20" value="ContractPayment" style="ellipse;whiteSpace=wrap;html=1;" vertex="1" parent="1">
          <mxGeometry x="930" y="480" width="120" height="40" as="geometry" />
        </mxCell>
        <mxCell id="49KmKqLuegTFWFSld-SZ-24" value="Extraction" style="rounded=0;whiteSpace=wrap;html=1;" vertex="1" parent="1">
          <mxGeometry x="1080" y="270" width="120" height="40" as="geometry" />
        </mxCell>
        <mxCell id="49KmKqLuegTFWFSld-SZ-26" style="edgeStyle=orthogonalEdgeStyle;rounded=0;orthogonalLoop=1;jettySize=auto;html=1;" edge="1" parent="1" source="49KmKqLuegTFWFSld-SZ-25" target="49KmKqLuegTFWFSld-SZ-24">
          <mxGeometry relative="1" as="geometry" />
        </mxCell>
        <mxCell id="49KmKqLuegTFWFSld-SZ-25" value="ExtractionYield" style="ellipse;whiteSpace=wrap;html=1;" vertex="1" parent="1">
          <mxGeometry x="1080" y="350" width="120" height="40" as="geometry" />
        </mxCell>
        <mxCell id="49KmKqLuegTFWFSld-SZ-27" value="Faction" style="rounded=0;whiteSpace=wrap;html=1;" vertex="1" parent="1">
          <mxGeometry x="680" y="860" width="120" height="40" as="geometry" />
        </mxCell>
        <mxCell id="49KmKqLuegTFWFSld-SZ-34" style="edgeStyle=orthogonalEdgeStyle;rounded=0;orthogonalLoop=1;jettySize=auto;html=1;" edge="1" parent="1" source="49KmKqLuegTFWFSld-SZ-29" target="49KmKqLuegTFWFSld-SZ-27">
          <mxGeometry relative="1" as="geometry" />
        </mxCell>
        <mxCell id="49KmKqLuegTFWFSld-SZ-29" value="FactionSymbol" style="ellipse;whiteSpace=wrap;html=1;" vertex="1" parent="1">
          <mxGeometry x="845" y="860" width="120" height="40" as="geometry" />
        </mxCell>
        <mxCell id="49KmKqLuegTFWFSld-SZ-33" style="edgeStyle=orthogonalEdgeStyle;rounded=0;orthogonalLoop=1;jettySize=auto;html=1;" edge="1" parent="1" source="49KmKqLuegTFWFSld-SZ-32" target="49KmKqLuegTFWFSld-SZ-27">
          <mxGeometry relative="1" as="geometry" />
        </mxCell>
        <mxCell id="49KmKqLuegTFWFSld-SZ-32" value="FactionTrait" style="rounded=0;whiteSpace=wrap;html=1;" vertex="1" parent="1">
          <mxGeometry x="680" y="1000" width="120" height="40" as="geometry" />
        </mxCell>
        <mxCell id="49KmKqLuegTFWFSld-SZ-36" style="edgeStyle=orthogonalEdgeStyle;rounded=0;orthogonalLoop=1;jettySize=auto;html=1;" edge="1" parent="1" source="49KmKqLuegTFWFSld-SZ-35" target="49KmKqLuegTFWFSld-SZ-32">
          <mxGeometry relative="1" as="geometry" />
        </mxCell>
        <mxCell id="49KmKqLuegTFWFSld-SZ-35" value="FactionTraitSymbol" style="ellipse;whiteSpace=wrap;html=1;" vertex="1" parent="1">
          <mxGeometry x="865" y="1000" width="120" height="40" as="geometry" />
        </mxCell>
        <mxCell id="49KmKqLuegTFWFSld-SZ-37" value="JumpGate" style="rounded=0;whiteSpace=wrap;html=1;" vertex="1" parent="1">
          <mxGeometry x="1355" y="350" width="120" height="40" as="geometry" />
        </mxCell>
        <mxCell id="49KmKqLuegTFWFSld-SZ-38" value="Market" style="rounded=0;whiteSpace=wrap;html=1;" vertex="1" parent="1">
          <mxGeometry x="1355" y="410" width="120" height="40" as="geometry" />
        </mxCell>
        <mxCell id="49KmKqLuegTFWFSld-SZ-39" value="MarketTradeGood" style="ellipse;whiteSpace=wrap;html=1;" vertex="1" parent="1">
          <mxGeometry x="1370" y="480" width="120" height="40" as="geometry" />
        </mxCell>
        <mxCell id="49KmKqLuegTFWFSld-SZ-42" style="edgeStyle=orthogonalEdgeStyle;rounded=0;orthogonalLoop=1;jettySize=auto;html=1;" edge="1" parent="1" source="49KmKqLuegTFWFSld-SZ-40" target="49KmKqLuegTFWFSld-SZ-41">
          <mxGeometry relative="1" as="geometry" />
        </mxCell>
        <mxCell id="49KmKqLuegTFWFSld-SZ-40" value="MarketTransaction" style="ellipse;whiteSpace=wrap;html=1;" vertex="1" parent="1">
          <mxGeometry x="-130" y="1020" width="120" height="40" as="geometry" />
        </mxCell>
        <mxCell id="49KmKqLuegTFWFSld-SZ-41" value="Transactions" style="rounded=0;whiteSpace=wrap;html=1;" vertex="1" parent="1">
          <mxGeometry x="-130" y="930" width="120" height="40" as="geometry" />
        </mxCell>
        <mxCell id="49KmKqLuegTFWFSld-SZ-44" style="edgeStyle=orthogonalEdgeStyle;rounded=0;orthogonalLoop=1;jettySize=auto;html=1;" edge="1" parent="1" source="49KmKqLuegTFWFSld-SZ-43" target="49KmKqLuegTFWFSld-SZ-41">
          <mxGeometry relative="1" as="geometry" />
        </mxCell>
        <mxCell id="49KmKqLuegTFWFSld-SZ-43" value="RepairTransaction" style="ellipse;whiteSpace=wrap;html=1;" vertex="1" parent="1">
          <mxGeometry x="-130" y="850" width="120" height="40" as="geometry" />
        </mxCell>
        <mxCell id="49KmKqLuegTFWFSld-SZ-45" value="ScannedShip" style="ellipse;whiteSpace=wrap;html=1;" vertex="1" parent="1">
          <mxGeometry x="-220" y="420" width="120" height="40" as="geometry" />
        </mxCell>
        <mxCell id="49KmKqLuegTFWFSld-SZ-46" value="ScannedSystem" style="ellipse;whiteSpace=wrap;html=1;" vertex="1" parent="1">
          <mxGeometry x="1050" y="1000" width="120" height="40" as="geometry" />
        </mxCell>
        <mxCell id="49KmKqLuegTFWFSld-SZ-47" value="ScannedWaypoint" style="ellipse;whiteSpace=wrap;html=1;" vertex="1" parent="1">
          <mxGeometry x="1180" y="1020" width="120" height="40" as="geometry" />
        </mxCell>
        <mxCell id="49KmKqLuegTFWFSld-SZ-49" style="edgeStyle=orthogonalEdgeStyle;rounded=0;orthogonalLoop=1;jettySize=auto;html=1;" edge="1" parent="1" source="49KmKqLuegTFWFSld-SZ-48" target="49KmKqLuegTFWFSld-SZ-41">
          <mxGeometry relative="1" as="geometry" />
        </mxCell>
        <mxCell id="49KmKqLuegTFWFSld-SZ-48" value="ScrapTransaction" style="ellipse;whiteSpace=wrap;html=1;" vertex="1" parent="1">
          <mxGeometry x="-290" y="930" width="120" height="40" as="geometry" />
        </mxCell>
        <mxCell id="49KmKqLuegTFWFSld-SZ-50" value="Ship" style="rounded=0;whiteSpace=wrap;html=1;" vertex="1" parent="1">
          <mxGeometry x="60" y="420" width="120" height="40" as="geometry" />
        </mxCell>
        <mxCell id="49KmKqLuegTFWFSld-SZ-53" style="edgeStyle=orthogonalEdgeStyle;rounded=0;orthogonalLoop=1;jettySize=auto;html=1;" edge="1" parent="1" source="49KmKqLuegTFWFSld-SZ-52" target="49KmKqLuegTFWFSld-SZ-50">
          <mxGeometry relative="1" as="geometry" />
        </mxCell>
        <mxCell id="49KmKqLuegTFWFSld-SZ-52" value="ShipCargo" style="rounded=0;whiteSpace=wrap;html=1;" vertex="1" parent="1">
          <mxGeometry x="200" y="420" width="120" height="40" as="geometry" />
        </mxCell>
        <mxCell id="49KmKqLuegTFWFSld-SZ-55" style="edgeStyle=orthogonalEdgeStyle;rounded=0;orthogonalLoop=1;jettySize=auto;html=1;" edge="1" parent="1" source="49KmKqLuegTFWFSld-SZ-54" target="49KmKqLuegTFWFSld-SZ-52">
          <mxGeometry relative="1" as="geometry" />
        </mxCell>
        <mxCell id="49KmKqLuegTFWFSld-SZ-54" value="ShipCargoItem" style="ellipse;whiteSpace=wrap;html=1;" vertex="1" parent="1">
          <mxGeometry x="350" y="420" width="120" height="40" as="geometry" />
        </mxCell>
        <mxCell id="49KmKqLuegTFWFSld-SZ-56" value="&lt;div&gt;ShipComponent&lt;/div&gt;&lt;div&gt;Condition&lt;br&gt;&lt;/div&gt;" style="ellipse;whiteSpace=wrap;html=1;" vertex="1" parent="1">
          <mxGeometry x="20" y="750" width="120" height="40" as="geometry" />
        </mxCell>
        <mxCell id="49KmKqLuegTFWFSld-SZ-57" value="&lt;div&gt;ShipComponent&lt;/div&gt;&lt;div&gt;Integrity&lt;br&gt;&lt;/div&gt;" style="ellipse;whiteSpace=wrap;html=1;" vertex="1" parent="1">
          <mxGeometry x="20" y="700" width="120" height="40" as="geometry" />
        </mxCell>
        <mxCell id="49KmKqLuegTFWFSld-SZ-60" style="edgeStyle=orthogonalEdgeStyle;rounded=0;orthogonalLoop=1;jettySize=auto;html=1;" edge="1" parent="1" source="49KmKqLuegTFWFSld-SZ-59" target="49KmKqLuegTFWFSld-SZ-50">
          <mxGeometry relative="1" as="geometry" />
        </mxCell>
        <mxCell id="49KmKqLuegTFWFSld-SZ-59" value="ShipConditionEvent" style="rounded=0;whiteSpace=wrap;html=1;" vertex="1" parent="1">
          <mxGeometry x="-70" y="480" width="120" height="40" as="geometry" />
        </mxCell>
        <mxCell id="49KmKqLuegTFWFSld-SZ-63" style="edgeStyle=orthogonalEdgeStyle;rounded=0;orthogonalLoop=1;jettySize=auto;html=1;" edge="1" parent="1" source="49KmKqLuegTFWFSld-SZ-62" target="49KmKqLuegTFWFSld-SZ-50">
          <mxGeometry relative="1" as="geometry" />
        </mxCell>
        <mxCell id="49KmKqLuegTFWFSld-SZ-62" value="ShipCrew" style="rounded=0;whiteSpace=wrap;html=1;" vertex="1" parent="1">
          <mxGeometry x="-150" y="90" width="120" height="40" as="geometry" />
        </mxCell>
        <mxCell id="49KmKqLuegTFWFSld-SZ-65" style="edgeStyle=orthogonalEdgeStyle;rounded=0;orthogonalLoop=1;jettySize=auto;html=1;" edge="1" parent="1" source="49KmKqLuegTFWFSld-SZ-64" target="49KmKqLuegTFWFSld-SZ-50">
          <mxGeometry relative="1" as="geometry" />
        </mxCell>
        <mxCell id="49KmKqLuegTFWFSld-SZ-64" value="ShipEngine" style="rounded=0;whiteSpace=wrap;html=1;" vertex="1" parent="1">
          <mxGeometry x="-10" y="300" width="120" height="40" as="geometry" />
        </mxCell>
        <mxCell id="49KmKqLuegTFWFSld-SZ-67" style="edgeStyle=orthogonalEdgeStyle;rounded=0;orthogonalLoop=1;jettySize=auto;html=1;" edge="1" parent="1" source="49KmKqLuegTFWFSld-SZ-66" target="49KmKqLuegTFWFSld-SZ-50">
          <mxGeometry relative="1" as="geometry" />
        </mxCell>
        <mxCell id="49KmKqLuegTFWFSld-SZ-66" value="ShipFrame" style="rounded=0;whiteSpace=wrap;html=1;" vertex="1" parent="1">
          <mxGeometry x="-40" y="250" width="120" height="40" as="geometry" />
        </mxCell>
        <mxCell id="49KmKqLuegTFWFSld-SZ-69" style="edgeStyle=orthogonalEdgeStyle;rounded=0;orthogonalLoop=1;jettySize=auto;html=1;" edge="1" parent="1" source="49KmKqLuegTFWFSld-SZ-68" target="49KmKqLuegTFWFSld-SZ-50">
          <mxGeometry relative="1" as="geometry" />
        </mxCell>
        <mxCell id="49KmKqLuegTFWFSld-SZ-68" value="ShipFuel" style="rounded=0;whiteSpace=wrap;html=1;" vertex="1" parent="1">
          <mxGeometry x="-70" y="190" width="120" height="40" as="geometry" />
        </mxCell>
        <mxCell id="49KmKqLuegTFWFSld-SZ-71" style="edgeStyle=orthogonalEdgeStyle;rounded=0;orthogonalLoop=1;jettySize=auto;html=1;" edge="1" parent="1" source="49KmKqLuegTFWFSld-SZ-70" target="49KmKqLuegTFWFSld-SZ-41">
          <mxGeometry relative="1" as="geometry" />
        </mxCell>
        <mxCell id="49KmKqLuegTFWFSld-SZ-70" value="&lt;div&gt;ShipModification&lt;/div&gt;&lt;div&gt;Transaction&lt;br&gt;&lt;/div&gt;" style="ellipse;whiteSpace=wrap;html=1;" vertex="1" parent="1">
          <mxGeometry x="30" y="930" width="120" height="40" as="geometry" />
        </mxCell>
        <mxCell id="49KmKqLuegTFWFSld-SZ-73" style="edgeStyle=orthogonalEdgeStyle;rounded=0;orthogonalLoop=1;jettySize=auto;html=1;" edge="1" parent="1" source="49KmKqLuegTFWFSld-SZ-72" target="49KmKqLuegTFWFSld-SZ-50">
          <mxGeometry relative="1" as="geometry" />
        </mxCell>
        <mxCell id="49KmKqLuegTFWFSld-SZ-72" value="ShipModule" style="rounded=0;whiteSpace=wrap;html=1;" vertex="1" parent="1">
          <mxGeometry x="160" y="50" width="120" height="40" as="geometry" />
        </mxCell>
        <mxCell id="49KmKqLuegTFWFSld-SZ-75" style="edgeStyle=orthogonalEdgeStyle;rounded=0;orthogonalLoop=1;jettySize=auto;html=1;" edge="1" parent="1" source="49KmKqLuegTFWFSld-SZ-74" target="49KmKqLuegTFWFSld-SZ-50">
          <mxGeometry relative="1" as="geometry" />
        </mxCell>
        <mxCell id="49KmKqLuegTFWFSld-SZ-74" value="ShipMount" style="rounded=0;whiteSpace=wrap;html=1;" vertex="1" parent="1">
          <mxGeometry x="-190" y="30" width="120" height="40" as="geometry" />
        </mxCell>
        <mxCell id="49KmKqLuegTFWFSld-SZ-77" style="edgeStyle=orthogonalEdgeStyle;rounded=0;orthogonalLoop=1;jettySize=auto;html=1;" edge="1" parent="1" source="49KmKqLuegTFWFSld-SZ-76" target="49KmKqLuegTFWFSld-SZ-50">
          <mxGeometry relative="1" as="geometry" />
        </mxCell>
        <mxCell id="49KmKqLuegTFWFSld-SZ-76" value="ShipNav" style="rounded=0;whiteSpace=wrap;html=1;" vertex="1" parent="1">
          <mxGeometry x="130" y="510" width="120" height="40" as="geometry" />
        </mxCell>
        <mxCell id="49KmKqLuegTFWFSld-SZ-79" style="edgeStyle=orthogonalEdgeStyle;rounded=0;orthogonalLoop=1;jettySize=auto;html=1;" edge="1" parent="1" source="49KmKqLuegTFWFSld-SZ-78" target="49KmKqLuegTFWFSld-SZ-76">
          <mxGeometry relative="1" as="geometry" />
        </mxCell>
        <mxCell id="49KmKqLuegTFWFSld-SZ-78" value="ShipNavFlightMode" style="rounded=1;whiteSpace=wrap;html=1;" vertex="1" parent="1">
          <mxGeometry x="150" y="580" width="120" height="40" as="geometry" />
        </mxCell>
        <mxCell id="49KmKqLuegTFWFSld-SZ-81" style="edgeStyle=orthogonalEdgeStyle;rounded=0;orthogonalLoop=1;jettySize=auto;html=1;" edge="1" parent="1" source="49KmKqLuegTFWFSld-SZ-80" target="49KmKqLuegTFWFSld-SZ-76">
          <mxGeometry relative="1" as="geometry" />
        </mxCell>
        <mxCell id="49KmKqLuegTFWFSld-SZ-80" value="ShipNavRoute" style="ellipse;whiteSpace=wrap;html=1;" vertex="1" parent="1">
          <mxGeometry x="305" y="540" width="120" height="40" as="geometry" />
        </mxCell>
        <mxCell id="49KmKqLuegTFWFSld-SZ-83" style="edgeStyle=orthogonalEdgeStyle;rounded=0;orthogonalLoop=1;jettySize=auto;html=1;" edge="1" parent="1" source="49KmKqLuegTFWFSld-SZ-82" target="49KmKqLuegTFWFSld-SZ-76">
          <mxGeometry relative="1" as="geometry" />
        </mxCell>
        <mxCell id="49KmKqLuegTFWFSld-SZ-82" value="&lt;div&gt;ShipNavRoute&lt;/div&gt;&lt;div&gt;Waypoint&lt;br&gt;&lt;/div&gt;" style="ellipse;whiteSpace=wrap;html=1;" vertex="1" parent="1">
          <mxGeometry x="305" y="480" width="120" height="40" as="geometry" />
        </mxCell>
        <mxCell id="49KmKqLuegTFWFSld-SZ-86" style="edgeStyle=orthogonalEdgeStyle;rounded=0;orthogonalLoop=1;jettySize=auto;html=1;" edge="1" parent="1" source="49KmKqLuegTFWFSld-SZ-85" target="49KmKqLuegTFWFSld-SZ-50">
          <mxGeometry relative="1" as="geometry" />
        </mxCell>
        <mxCell id="49KmKqLuegTFWFSld-SZ-85" value="ShipReactor" style="rounded=0;whiteSpace=wrap;html=1;" vertex="1" parent="1">
          <mxGeometry x="-100" y="140" width="120" height="40" as="geometry" />
        </mxCell>
        <mxCell id="49KmKqLuegTFWFSld-SZ-88" style="edgeStyle=orthogonalEdgeStyle;rounded=0;orthogonalLoop=1;jettySize=auto;html=1;" edge="1" parent="1" source="49KmKqLuegTFWFSld-SZ-87" target="49KmKqLuegTFWFSld-SZ-50">
          <mxGeometry relative="1" as="geometry" />
        </mxCell>
        <mxCell id="49KmKqLuegTFWFSld-SZ-87" value="ShipRegistration" style="rounded=0;whiteSpace=wrap;html=1;" vertex="1" parent="1">
          <mxGeometry x="-70" y="540" width="120" height="40" as="geometry" />
        </mxCell>
        <mxCell id="49KmKqLuegTFWFSld-SZ-89" value="ShipRequirements" style="ellipse;whiteSpace=wrap;html=1;" vertex="1" parent="1">
          <mxGeometry x="20" y="800" width="120" height="40" as="geometry" />
        </mxCell>
        <mxCell id="49KmKqLuegTFWFSld-SZ-91" style="edgeStyle=orthogonalEdgeStyle;rounded=0;orthogonalLoop=1;jettySize=auto;html=1;" edge="1" parent="1" source="49KmKqLuegTFWFSld-SZ-90" target="49KmKqLuegTFWFSld-SZ-50">
          <mxGeometry relative="1" as="geometry" />
        </mxCell>
        <mxCell id="49KmKqLuegTFWFSld-SZ-90" value="ShipRole" style="rounded=1;whiteSpace=wrap;html=1;" vertex="1" parent="1">
          <mxGeometry x="-70" y="600" width="120" height="40" as="geometry" />
        </mxCell>
        <mxCell id="49KmKqLuegTFWFSld-SZ-93" style="edgeStyle=orthogonalEdgeStyle;rounded=0;orthogonalLoop=1;jettySize=auto;html=1;" edge="1" parent="1" source="49KmKqLuegTFWFSld-SZ-92" target="49KmKqLuegTFWFSld-SZ-50">
          <mxGeometry relative="1" as="geometry" />
        </mxCell>
        <mxCell id="49KmKqLuegTFWFSld-SZ-92" value="ShipType" style="ellipse;whiteSpace=wrap;html=1;" vertex="1" parent="1">
          <mxGeometry x="-70" y="660" width="120" height="40" as="geometry" />
        </mxCell>
        <mxCell id="49KmKqLuegTFWFSld-SZ-94" value="Shipyard" style="rounded=0;whiteSpace=wrap;html=1;" vertex="1" parent="1">
          <mxGeometry x="-280" y="570" width="120" height="40" as="geometry" />
        </mxCell>
        <mxCell id="49KmKqLuegTFWFSld-SZ-97" style="edgeStyle=orthogonalEdgeStyle;rounded=0;orthogonalLoop=1;jettySize=auto;html=1;" edge="1" parent="1" source="49KmKqLuegTFWFSld-SZ-96" target="49KmKqLuegTFWFSld-SZ-41">
          <mxGeometry relative="1" as="geometry" />
        </mxCell>
        <mxCell id="49KmKqLuegTFWFSld-SZ-96" value="&lt;div&gt;Shipyard&lt;/div&gt;&lt;div&gt;Transaction&lt;br&gt;&lt;/div&gt;" style="ellipse;whiteSpace=wrap;html=1;" vertex="1" parent="1">
          <mxGeometry x="40" y="990" width="120" height="40" as="geometry" />
        </mxCell>
        <mxCell id="49KmKqLuegTFWFSld-SZ-100" style="edgeStyle=orthogonalEdgeStyle;rounded=0;orthogonalLoop=1;jettySize=auto;html=1;" edge="1" parent="1" source="49KmKqLuegTFWFSld-SZ-98" target="49KmKqLuegTFWFSld-SZ-99">
          <mxGeometry relative="1" as="geometry" />
        </mxCell>
        <mxCell id="49KmKqLuegTFWFSld-SZ-98" value="SiphonYield" style="ellipse;whiteSpace=wrap;html=1;" vertex="1" parent="1">
          <mxGeometry x="1080" y="490" width="120" height="40" as="geometry" />
        </mxCell>
        <mxCell id="49KmKqLuegTFWFSld-SZ-99" value="Siphon" style="rounded=0;whiteSpace=wrap;html=1;" vertex="1" parent="1">
          <mxGeometry x="1080" y="410" width="120" height="40" as="geometry" />
        </mxCell>
        <mxCell id="49KmKqLuegTFWFSld-SZ-101" value="SupplyLevel" style="rounded=1;whiteSpace=wrap;html=1;" vertex="1" parent="1">
          <mxGeometry x="1170" y="740" width="120" height="40" as="geometry" />
        </mxCell>
        <mxCell id="49KmKqLuegTFWFSld-SZ-102" value="Survey" style="rounded=0;whiteSpace=wrap;html=1;" vertex="1" parent="1">
          <mxGeometry x="860" y="590" width="120" height="40" as="geometry" />
        </mxCell>
        <mxCell id="49KmKqLuegTFWFSld-SZ-105" style="edgeStyle=orthogonalEdgeStyle;rounded=0;orthogonalLoop=1;jettySize=auto;html=1;" edge="1" parent="1" source="49KmKqLuegTFWFSld-SZ-104" target="49KmKqLuegTFWFSld-SZ-102">
          <mxGeometry relative="1" as="geometry" />
        </mxCell>
        <mxCell id="49KmKqLuegTFWFSld-SZ-104" value="SurveyDeposit" style="ellipse;whiteSpace=wrap;html=1;" vertex="1" parent="1">
          <mxGeometry x="860" y="670" width="120" height="40" as="geometry" />
        </mxCell>
        <mxCell id="49KmKqLuegTFWFSld-SZ-106" value="System" style="rounded=0;whiteSpace=wrap;html=1;" vertex="1" parent="1">
          <mxGeometry x="500" y="790" width="120" height="40" as="geometry" />
        </mxCell>
        <mxCell id="49KmKqLuegTFWFSld-SZ-112" style="edgeStyle=orthogonalEdgeStyle;rounded=0;orthogonalLoop=1;jettySize=auto;html=1;" edge="1" parent="1" source="49KmKqLuegTFWFSld-SZ-107" target="49KmKqLuegTFWFSld-SZ-106">
          <mxGeometry relative="1" as="geometry" />
        </mxCell>
        <mxCell id="49KmKqLuegTFWFSld-SZ-107" value="SystemFaction" style="ellipse;whiteSpace=wrap;html=1;" vertex="1" parent="1">
          <mxGeometry x="240" y="890" width="120" height="40" as="geometry" />
        </mxCell>
        <mxCell id="49KmKqLuegTFWFSld-SZ-113" style="edgeStyle=orthogonalEdgeStyle;rounded=0;orthogonalLoop=1;jettySize=auto;html=1;" edge="1" parent="1" source="49KmKqLuegTFWFSld-SZ-108" target="49KmKqLuegTFWFSld-SZ-106">
          <mxGeometry relative="1" as="geometry" />
        </mxCell>
        <mxCell id="49KmKqLuegTFWFSld-SZ-108" value="SystemSymbol" style="ellipse;whiteSpace=wrap;html=1;" vertex="1" parent="1">
          <mxGeometry x="240" y="950" width="120" height="40" as="geometry" />
        </mxCell>
        <mxCell id="49KmKqLuegTFWFSld-SZ-114" style="edgeStyle=orthogonalEdgeStyle;rounded=0;orthogonalLoop=1;jettySize=auto;html=1;" edge="1" parent="1" source="49KmKqLuegTFWFSld-SZ-110" target="49KmKqLuegTFWFSld-SZ-106">
          <mxGeometry relative="1" as="geometry" />
        </mxCell>
        <mxCell id="49KmKqLuegTFWFSld-SZ-110" value="SystemType" style="ellipse;whiteSpace=wrap;html=1;" vertex="1" parent="1">
          <mxGeometry x="240" y="1010" width="120" height="40" as="geometry" />
        </mxCell>
        <mxCell id="49KmKqLuegTFWFSld-SZ-115" style="edgeStyle=orthogonalEdgeStyle;rounded=0;orthogonalLoop=1;jettySize=auto;html=1;" edge="1" parent="1" source="49KmKqLuegTFWFSld-SZ-111" target="49KmKqLuegTFWFSld-SZ-106">
          <mxGeometry relative="1" as="geometry" />
        </mxCell>
        <mxCell id="49KmKqLuegTFWFSld-SZ-111" value="SystemWaypoint" style="ellipse;whiteSpace=wrap;html=1;" vertex="1" parent="1">
          <mxGeometry x="360" y="850" width="120" height="40" as="geometry" />
        </mxCell>
        <mxCell id="49KmKqLuegTFWFSld-SZ-116" value="TradeGood" style="rounded=0;whiteSpace=wrap;html=1;" vertex="1" parent="1">
          <mxGeometry x="1020" y="640" width="120" height="40" as="geometry" />
        </mxCell>
        <mxCell id="49KmKqLuegTFWFSld-SZ-118" style="edgeStyle=orthogonalEdgeStyle;rounded=0;orthogonalLoop=1;jettySize=auto;html=1;" edge="1" parent="1" source="49KmKqLuegTFWFSld-SZ-117" target="49KmKqLuegTFWFSld-SZ-116">
          <mxGeometry relative="1" as="geometry" />
        </mxCell>
        <mxCell id="49KmKqLuegTFWFSld-SZ-117" value="TradeSymbol" style="ellipse;whiteSpace=wrap;html=1;" vertex="1" parent="1">
          <mxGeometry x="1020" y="760" width="120" height="40" as="geometry" />
        </mxCell>
        <mxCell id="49KmKqLuegTFWFSld-SZ-119" value="Waypoint" style="rounded=0;whiteSpace=wrap;html=1;" vertex="1" parent="1">
          <mxGeometry x="600" y="350" width="120" height="40" as="geometry" />
        </mxCell>
        <mxCell id="49KmKqLuegTFWFSld-SZ-129" style="edgeStyle=orthogonalEdgeStyle;rounded=0;orthogonalLoop=1;jettySize=auto;html=1;" edge="1" parent="1" source="49KmKqLuegTFWFSld-SZ-120" target="49KmKqLuegTFWFSld-SZ-119">
          <mxGeometry relative="1" as="geometry" />
        </mxCell>
        <mxCell id="49KmKqLuegTFWFSld-SZ-120" value="WaypointFaction" style="ellipse;whiteSpace=wrap;html=1;" vertex="1" parent="1">
          <mxGeometry x="490" y="430" width="120" height="40" as="geometry" />
        </mxCell>
        <mxCell id="49KmKqLuegTFWFSld-SZ-132" style="edgeStyle=orthogonalEdgeStyle;rounded=0;orthogonalLoop=1;jettySize=auto;html=1;" edge="1" parent="1" source="49KmKqLuegTFWFSld-SZ-122" target="49KmKqLuegTFWFSld-SZ-119">
          <mxGeometry relative="1" as="geometry" />
        </mxCell>
        <mxCell id="49KmKqLuegTFWFSld-SZ-122" value="WaypointModifier" style="rounded=0;whiteSpace=wrap;html=1;" vertex="1" parent="1">
          <mxGeometry x="420" y="230" width="120" height="40" as="geometry" />
        </mxCell>
        <mxCell id="49KmKqLuegTFWFSld-SZ-136" style="edgeStyle=orthogonalEdgeStyle;rounded=0;orthogonalLoop=1;jettySize=auto;html=1;" edge="1" parent="1" source="49KmKqLuegTFWFSld-SZ-123" target="49KmKqLuegTFWFSld-SZ-122">
          <mxGeometry relative="1" as="geometry" />
        </mxCell>
        <mxCell id="49KmKqLuegTFWFSld-SZ-123" value="&lt;div&gt;WaypointModifier&lt;/div&gt;&lt;div&gt;Symbol&lt;br&gt;&lt;/div&gt;" style="ellipse;whiteSpace=wrap;html=1;direction=west;" vertex="1" parent="1">
          <mxGeometry x="250" y="220" width="120" height="40" as="geometry" />
        </mxCell>
        <mxCell id="49KmKqLuegTFWFSld-SZ-133" style="edgeStyle=orthogonalEdgeStyle;rounded=0;orthogonalLoop=1;jettySize=auto;html=1;" edge="1" parent="1" source="49KmKqLuegTFWFSld-SZ-124" target="49KmKqLuegTFWFSld-SZ-119">
          <mxGeometry relative="1" as="geometry" />
        </mxCell>
        <mxCell id="49KmKqLuegTFWFSld-SZ-124" value="WaypointOrbital" style="rounded=0;whiteSpace=wrap;html=1;" vertex="1" parent="1">
          <mxGeometry x="640" y="190" width="120" height="40" as="geometry" />
        </mxCell>
        <mxCell id="49KmKqLuegTFWFSld-SZ-134" style="edgeStyle=orthogonalEdgeStyle;rounded=0;orthogonalLoop=1;jettySize=auto;html=1;" edge="1" parent="1" source="49KmKqLuegTFWFSld-SZ-125" target="49KmKqLuegTFWFSld-SZ-119">
          <mxGeometry relative="1" as="geometry" />
        </mxCell>
        <mxCell id="49KmKqLuegTFWFSld-SZ-125" value="WaypointTrait" style="rounded=0;whiteSpace=wrap;html=1;" vertex="1" parent="1">
          <mxGeometry x="470" y="120" width="120" height="40" as="geometry" />
        </mxCell>
        <mxCell id="49KmKqLuegTFWFSld-SZ-135" style="edgeStyle=orthogonalEdgeStyle;rounded=0;orthogonalLoop=1;jettySize=auto;html=1;" edge="1" parent="1" source="49KmKqLuegTFWFSld-SZ-126" target="49KmKqLuegTFWFSld-SZ-125">
          <mxGeometry relative="1" as="geometry" />
        </mxCell>
        <mxCell id="49KmKqLuegTFWFSld-SZ-126" value="&lt;div&gt;WaypointTrait&lt;/div&gt;&lt;div&gt;Symbol&lt;br&gt;&lt;/div&gt;" style="ellipse;whiteSpace=wrap;html=1;" vertex="1" parent="1">
          <mxGeometry x="270" y="110" width="120" height="40" as="geometry" />
        </mxCell>
        <mxCell id="49KmKqLuegTFWFSld-SZ-130" style="edgeStyle=orthogonalEdgeStyle;rounded=0;orthogonalLoop=1;jettySize=auto;html=1;" edge="1" parent="1" source="49KmKqLuegTFWFSld-SZ-127" target="49KmKqLuegTFWFSld-SZ-119">
          <mxGeometry relative="1" as="geometry" />
        </mxCell>
        <mxCell id="49KmKqLuegTFWFSld-SZ-127" value="WaypointSymbol" style="ellipse;whiteSpace=wrap;html=1;" vertex="1" parent="1">
          <mxGeometry x="630" y="470" width="120" height="40" as="geometry" />
        </mxCell>
        <mxCell id="49KmKqLuegTFWFSld-SZ-131" style="edgeStyle=orthogonalEdgeStyle;rounded=0;orthogonalLoop=1;jettySize=auto;html=1;" edge="1" parent="1" source="49KmKqLuegTFWFSld-SZ-128" target="49KmKqLuegTFWFSld-SZ-119">
          <mxGeometry relative="1" as="geometry" />
        </mxCell>
        <mxCell id="49KmKqLuegTFWFSld-SZ-128" value="WaypointType" style="ellipse;whiteSpace=wrap;html=1;" vertex="1" parent="1">
          <mxGeometry x="550" y="530" width="120" height="40" as="geometry" />
        </mxCell>
      </root>
    </mxGraphModel>
  </diagram>
</mxfile>
